<svg width="15" height="14" viewBox="0 0 15 14" fill="none" xmlns="http://www.w3.org/2000/svg">
<path d="M7.02122 1.6483C7.18594 1.27875 7.26833 1.09398 7.38303 1.03708C7.48264 0.987641 7.59961 0.987641 7.69923 1.03708C7.81392 1.09398 7.89632 1.27875 8.06103 1.6483L9.37306 4.59178C9.4218 4.70103 9.44614 4.75565 9.48385 4.79748C9.51714 4.83449 9.55791 4.8641 9.60338 4.88436C9.65482 4.90727 9.7143 4.91355 9.83327 4.9261L13.0381 5.26436C13.4405 5.30682 13.6416 5.32805 13.7312 5.41955C13.809 5.49902 13.8451 5.6103 13.8289 5.72033C13.8103 5.84698 13.66 5.98238 13.3595 6.25325L10.9654 8.4107C10.8766 8.49075 10.8322 8.53081 10.8041 8.57955C10.7792 8.62273 10.7636 8.67062 10.7584 8.72014C10.7525 8.77614 10.7649 8.83462 10.7897 8.95167L11.4584 12.1042C11.5423 12.5 11.5843 12.6979 11.525 12.8113C11.4734 12.9099 11.3787 12.9786 11.2691 12.9972C11.1429 13.0185 10.9676 12.9175 10.6171 12.7154L7.82552 11.1052C7.72192 11.0454 7.67013 11.0156 7.61505 11.0039C7.56632 10.9936 7.51594 10.9936 7.4672 11.0039C7.41213 11.0156 7.36033 11.0454 7.25674 11.1052L4.46512 12.7154C4.11465 12.9175 3.93941 13.0185 3.81318 12.9972C3.70353 12.9786 3.60887 12.9099 3.55732 12.8113C3.49799 12.6979 3.53996 12.5 3.62392 12.1042L4.29257 8.95167C4.31739 8.83462 4.32979 8.77614 4.3239 8.72014C4.31869 8.67062 4.30313 8.62273 4.27822 8.57955C4.25008 8.53081 4.20566 8.49075 4.11681 8.4107L1.72283 6.25325C1.42228 5.98238 1.27201 5.84698 1.25332 5.72033C1.2371 5.6103 1.27325 5.49902 1.35105 5.41955C1.44061 5.32805 1.64179 5.30682 2.04415 5.26436L5.24902 4.9261C5.36797 4.91355 5.42744 4.90727 5.47887 4.88436C5.52437 4.8641 5.56511 4.83449 5.59845 4.79748C5.63613 4.75565 5.66048 4.70103 5.70918 4.59178L7.02122 1.6483Z" fill="#008AEE" stroke="#008AEE" stroke-width="1.5" stroke-linecap="round" stroke-linejoin="round"/>
</svg>
