<svg width="22" height="23" viewBox="0 0 22 23" fill="none" xmlns="http://www.w3.org/2000/svg">
<path d="M8.69037 0C7.57395 0 6.66892 0.905034 6.66892 2.02145C6.66892 3.13787 7.57395 4.04291 8.69037 4.04291H13.3108C14.4273 4.04291 15.3323 3.13787 15.3323 2.02145C15.3323 0.905034 14.4273 0 13.3108 0H8.69037Z" fill="#16242E"/>
<path fill-rule="evenodd" clip-rule="evenodd" d="M3.68124 8.53524C2.5957 8.69227 1.99914 8.98807 1.61099 9.4852C1.22284 9.98233 1.08056 10.6328 1.19149 11.724C1.30396 12.8303 1.66212 14.2689 2.16205 16.2686C2.48062 17.5429 2.70811 18.4489 2.96806 19.1312C3.22248 19.799 3.48641 20.1911 3.84266 20.4692C4.19891 20.7474 4.64329 20.9084 5.35288 20.9932C6.0779 21.0799 7.01202 21.0809 8.32551 21.0809H13.6745C14.988 21.0809 15.9221 21.0799 16.6471 20.9932C17.3567 20.9084 17.8011 20.7474 18.1574 20.4692C18.5136 20.1911 18.7775 19.799 19.032 19.1312C19.2919 18.4489 19.5194 17.5429 19.838 16.2686C20.3379 14.2689 20.696 12.8303 20.8085 11.724C20.9194 10.6328 20.7772 9.98232 20.389 9.4852C20.0008 8.98806 19.4043 8.69227 18.3187 8.53524C17.2182 8.37603 15.7357 8.3746 13.6745 8.3746H8.32551C6.26424 8.3746 4.78177 8.37603 3.68124 8.53524ZM8.27611 7.21948H13.7239C15.7251 7.21947 17.2912 7.21946 18.4841 7.39202C19.7018 7.56817 20.6471 7.93874 21.2995 8.77431C21.9519 9.60989 22.0821 10.6168 21.9577 11.8408C21.8358 13.0399 21.456 14.5591 20.9707 16.5004L20.9494 16.5855C20.642 17.8151 20.3987 18.7882 20.1114 19.5424C19.8157 20.3187 19.452 20.9239 18.8682 21.3797C18.2845 21.8355 17.6091 22.0415 16.7843 22.1402C15.9828 22.236 14.9796 22.236 13.712 22.236H8.28802C7.02039 22.236 6.01725 22.236 5.21573 22.1402C4.39089 22.0415 3.71555 21.8355 3.13178 21.3797C2.54802 20.9239 2.18437 20.3187 1.88862 19.5424C1.60123 18.7881 1.35793 17.8148 1.05047 16.5849L1.02945 16.5009C0.54407 14.5594 0.164206 13.04 0.042301 11.8408C-0.0821362 10.6168 0.0481112 9.60991 0.700522 8.77433C1.35293 7.93874 2.2982 7.56817 3.51586 7.39202C4.70874 7.21946 6.2749 7.21947 8.27611 7.21948Z" fill="#16242E"/>
<path d="M15.1365 2.89045C15.2621 2.6272 15.3323 2.33254 15.3323 2.02145C15.3323 1.71183 15.2626 1.41845 15.1382 1.15614C15.9278 1.16187 16.5432 1.19812 17.0925 1.41281C17.7488 1.66933 18.3197 2.10538 18.7398 2.67111C19.1637 3.24183 19.3626 3.97336 19.6365 4.98022L19.6901 5.17701L20.2823 8.5996C19.8102 8.27394 19.2015 8.08042 18.4141 7.96543L17.9968 5.55352C17.669 4.35254 17.55 3.97513 17.3488 3.70416C17.1226 3.39953 16.8151 3.16473 16.4618 3.02661C16.2079 2.92738 15.9011 2.89818 15.1365 2.89045Z" fill="#16242E"/>
<path d="M6.86297 1.15614C6.73854 1.41845 6.66892 1.71183 6.66892 2.02145C6.66892 2.33254 6.73919 2.62721 6.86472 2.89046C6.10021 2.89819 5.79343 2.92738 5.53953 3.02661C5.18613 3.16473 4.87873 3.39953 4.6525 3.70416C4.45127 3.97513 4.33229 4.35254 4.00449 5.55352L3.58715 7.96533C2.79989 8.08025 2.19115 8.27364 1.71906 8.59907L2.31122 5.17701L2.36481 4.98023C2.63866 3.97337 2.83763 3.24183 3.26148 2.67111C3.6816 2.10538 4.25249 1.66933 4.9088 1.41281C5.45809 1.19813 6.07345 1.16189 6.86297 1.15614Z" fill="#16242E"/>
<path d="M7.24648 12.4175C7.24648 11.9391 6.8586 11.5512 6.38014 11.5512C5.90168 11.5512 5.5138 11.9391 5.5138 12.4175V17.038C5.5138 17.5164 5.90168 17.9043 6.38014 17.9043C6.8586 17.9043 7.24648 17.5164 7.24648 17.038V12.4175Z" fill="#16242E"/>
<path d="M15.6211 11.5512C16.0995 11.5512 16.4874 11.9391 16.4874 12.4175V17.038C16.4874 17.5164 16.0995 17.9043 15.6211 17.9043C15.1426 17.9043 14.7547 17.5164 14.7547 17.038V12.4175C14.7547 11.9391 15.1426 11.5512 15.6211 11.5512Z" fill="#16242E"/>
<path d="M11.8669 12.4175C11.8669 11.9391 11.4791 11.5512 11.0006 11.5512C10.5222 11.5512 10.1343 11.9391 10.1343 12.4175V17.038C10.1343 17.5164 10.5222 17.9043 11.0006 17.9043C11.4791 17.9043 11.8669 17.5164 11.8669 17.038V12.4175Z" fill="#16242E"/>
</svg>
